<svg viewBox="0 0 265 52" xmlns="http://www.w3.org/2000/svg">
<path d="M264.174 0H0V51.3526H264.174V0ZM29.7316 18.3175H25.0427V35.788H21.9523V18.3175H17.2635V15.4587H29.7316V18.3175V18.3175ZM37.9371 35.788H34.8467V15.4587H37.9371V35.788ZM54.9874 25.941C53.7086 26.9998 52.0036 27.5292 49.8723 27.5292H48.487V35.788H45.3966V15.4587H48.9132C50.6183 15.4587 51.897 15.5646 52.8561 15.7764C53.7086 15.9881 54.5612 16.4117 55.2006 17.1528C56.3728 18.3175 57.0122 19.694 57.0122 21.494C56.799 23.3998 56.1596 24.7763 54.9874 25.941ZM67.1358 31.9763V19.2705L77.5792 25.6234L67.1358 31.9763ZM96.228 18.3175H91.5391V35.788H88.4488V18.3175H83.7599V15.4587H96.228V18.3175ZM117.861 33.141C115.729 35.1527 113.172 36.2115 110.188 36.2115C107.524 36.2115 105.179 35.2586 103.048 33.4586C100.704 31.4469 99.5315 28.7998 99.5315 25.5175C99.5315 22.6587 100.597 20.2234 102.728 18.1058C104.86 16.094 107.417 15.0352 110.295 15.0352C113.172 15.0352 115.729 16.094 117.861 18.1058C119.992 20.2234 121.058 22.6587 121.058 25.6234C120.951 28.5881 119.885 31.1292 117.861 33.141ZM136.296 25.941C135.018 26.9998 133.313 27.5292 131.181 27.5292H129.796V35.788H126.706V15.4587H130.222C131.927 15.4587 133.206 15.5646 134.165 15.7764C135.018 15.9881 135.87 16.4117 136.509 17.1528C137.682 18.3175 138.321 19.694 138.321 21.494C138.215 23.3998 137.575 24.7763 136.296 25.941ZM261.084 48.282H153.347V3.07057H261.084V48.282ZM171.356 18.3175H166.667V15.4587H179.135V18.3175H174.447V35.788H171.356V18.3175V18.3175ZM115.623 20.2234C117.115 21.7057 117.861 23.5057 117.861 25.7292C117.861 27.8469 117.115 29.6469 115.623 31.2351C114.131 32.7174 112.319 33.4586 110.188 33.4586C108.163 33.4586 106.458 32.7174 104.966 31.2351C103.474 29.7527 102.728 27.9528 102.728 25.7292C102.728 23.6116 103.474 21.8116 104.966 20.3293C106.458 18.8469 108.27 18.1058 110.401 18.1058C112.426 17.9999 114.237 18.7411 115.623 20.2234ZM228.049 35.788H224.852L228.901 15.3528H229.86L236.254 29.6469L242.861 15.3528H243.82L247.443 35.788H244.246L242.222 23.5057L236.574 35.788H235.721L230.286 23.5057L228.049 35.788ZM195.653 35.788H184.357V15.4587H195.653V18.3175H187.447V23.1881H195.44V26.0469H187.447V32.8233H195.653V35.788ZM135.231 21.494C135.231 23.7175 133.845 24.7763 130.968 24.7763H129.796V18.3175H130.862C133.739 18.3175 135.231 19.3763 135.231 21.494ZM53.8152 21.494C53.8152 23.7175 52.4299 24.7763 49.5526 24.7763H48.3804V18.3175H49.4461C52.3233 18.3175 53.8152 19.3763 53.8152 21.494ZM205.883 30.9174H214.621L216.753 35.8939H220.163L210.998 15.4587H209.826L200.235 35.8939H203.539L205.883 30.9174ZM210.359 21.0705L213.449 27.9528H207.268L210.359 21.0705Z" fill="white"/>
</svg>
