<svg width="130" height="43" viewBox="0 0 130 43" fill="none" xmlns="http://www.w3.org/2000/svg">
<path d="M55 11.8999C55 10.4999 55 9.19991 55 7.79991C55 7.69991 55 7.49991 55 7.39991C55 7.39991 55.1 7.29991 55.1 7.39991C55.2 7.39991 55.2 7.49991 55.3 7.49991C55.9 7.89991 56.6 8.19991 57.2 8.59991C58.1 9.09991 59 9.59991 59.9 10.1999C60.6 10.5999 61.3 10.9999 62 11.3999C62.3 11.5999 62.5 11.6999 62.8 11.8999C62.8 11.8999 62.9 11.8999 62.9 11.9999V12.0999C62.8 12.0999 62.8 12.1999 62.7 12.1999C61.6 12.7999 60.6 13.3999 59.5 13.9999C58.4 14.5999 57.3 15.1999 56.3 15.8999C55.9 16.0999 55.6 16.2999 55.2 16.4999C55.2 16.4999 55.1 16.4999 55.1 16.5999C55.1 16.5999 55 16.5999 55 16.4999V16.3999C55 16.2999 55 16.1999 55 16.0999C55 14.5999 55 13.2999 55 11.8999Z" fill="white"/>
<path d="M0 0.399902V5.1999H6.5V21.4999L12.5 21.2999V5.1999H19.1V0.399902H0Z" fill="white"/>
<path d="M21.3 0.399902V20.9999L27.3 20.7999V0.399902H21.3Z" fill="white"/>
<path d="M41.3999 0.399902H31.7V20.6999L37.7 20.4999V16.0999H41.3999C47.1999 16.0999 50.8999 13.0999 50.8999 8.1999C50.8999 3.3999 47.1999 0.399902 41.3999 0.399902ZM41 11.3999H37.5999V5.1999H41C43.5 5.1999 44.7 6.3999 44.7 8.2999C44.8 10.2999 43.5 11.3999 41 11.3999Z" fill="white"/>
<path d="M63.5 0.399902V5.1999H70V19.4999L76 19.2999V5.1999H82.5V0.399902H63.5Z" fill="white"/>
<path d="M95.3 0C88.5 0 83.5 4.7 83.5 11.1C83.5 14.3 84.7 17 86.8 19L104.4 18.4C106.2 16.5 107.2 13.9 107.2 11.1C107.1 4.7 102.1 0 95.3 0ZM95.3 17.2C92.1 17.2 89.5 14.8 89.5 11.1C89.5 7.4 92 5 95.3 5C98.5 5 101.1 7.4 101.1 11.1C101 14.8 98.5 17.2 95.3 17.2Z" fill="white"/>
<path d="M120 0.399902H110.3V18.1999L116.3 17.9999V16.0999H120C125.8 16.0999 129.5 13.0999 129.5 8.1999C129.5 3.3999 125.8 0.399902 120 0.399902ZM119.7 11.3999H116.3V5.1999H119.7C122.2 5.1999 123.4 6.3999 123.4 8.2999C123.4 10.2999 122.2 11.3999 119.7 11.3999Z" fill="white"/>
<path d="M17.2 24.2999V25.6H23.7V42.1H29.7V25.6H36.2V23.7L17.2 24.2999Z" fill="white"/>
<path d="M44.5 37.4999V33.5999H54V29.0999H44.5V25.4999H55.3V23.0999L38.5 23.5999V42.0999H55.6V37.3999H44.5V37.4999Z" fill="white"/>
<path d="M72.5999 22.5999L64.9999 22.7999L56.3999 42.1999H62.5999L64.2999 38.0999H73.2999L74.9999 42.1999H81.2999L72.5999 22.5999ZM65.9999 33.5999L68.6999 26.7999L71.3999 33.5999H65.9999Z" fill="white"/>
<path d="M107.7 21.3999L102.3 21.5999L95.3999 33.0999L88.5999 21.9999L82.8999 22.1999V42.0999H88.4999V31.0999L93.9999 39.9999H96.6999L102.2 30.7999L102.3 42.0999H107.8L107.7 21.3999Z" fill="white"/>
</svg>
