<svg xmlns:dc="http://purl.org/dc/elements/1.1/" xmlns:cc="http://creativecommons.org/ns#" xmlns:rdf="http://www.w3.org/1999/02/22-rdf-syntax-ns#" xmlns:svg="http://www.w3.org/2000/svg" xmlns="http://www.w3.org/2000/svg" xmlns:sodipodi="http://sodipodi.sourceforge.net/DTD/sodipodi-0.dtd" xmlns:inkscape="http://www.inkscape.org/namespaces/inkscape" version="1.1" id="Layer_1" x="0px" y="0px" viewBox="0 0 544.03002 276.59999" xml:space="preserve" sodipodi:docname="SY-Logo-Main.svg" width="544.03003" height="276.60001" inkscape:version="0.92.1 r15371"><metadata id="metadata49"><rdf:RDF><cc:Work rdf:about=""><dc:format>image/svg+xml</dc:format><dc:type rdf:resource="http://purl.org/dc/dcmitype/StillImage"/><dc:title/></cc:Work></rdf:RDF></metadata><defs id="defs47"/><sodipodi:namedview pagecolor="#ffffff" bordercolor="#666666" borderopacity="1" objecttolerance="10" gridtolerance="10" guidetolerance="10" inkscape:pageopacity="0" inkscape:pageshadow="2" inkscape:window-width="1680" inkscape:window-height="1027" id="namedview45" showgrid="false" fit-margin-top="0" fit-margin-left="0" fit-margin-right="0" fit-margin-bottom="0" inkscape:zoom="0.34089964" inkscape:cx="271.74501" inkscape:cy="139.27999" inkscape:window-x="-8" inkscape:window-y="-8" inkscape:window-maximized="1" inkscape:current-layer="Layer_1"/>
<style type="text/css" id="style2">
	.st0{fill:#FFFFFF;}
	.st1{fill:#06255B;}
	.st2{fill:#B1945F;}
	.st3{fill:#299261;}
	.st4{fill-rule:evenodd;clip-rule:evenodd;fill:#FFFFFF;}
</style>
<g id="g42" transform="translate(-149.2,-160.32)">
	<polygon class="st0" points="568.76,324.18 421.22,160.32 273.68,324.18 250.71,324.18 149.2,436.92 693.23,436.91 591.73,324.18 " id="polygon4" style="fill:#ffffff"/>
	<path class="st1" d="m 315.75,332.68 h 7.66 l 47.32,-52.55 c -3.23,6.64 -6.69,14.73 -6.69,14.73 l 4.42,4.79 -29.74,33.03 h 7.66 l 21.89,-24.31 5.21,5.97 c -0.64,2.25 -1.96,5.63 -2.98,8.56 l -37.81,41.99 h -107.2 l 29,-32.21 h 22.97 l 95.95,-106.56 v 17.01 l -80.63,89.55 h 7.66 l 74.83,-83.1 c 3.68,4.4 4.06,10.47 2.9,13.79 z m 105.47,-117.13 19.14,-21.26 -7.66,-8.5 -19.14,21.26 z m 7.66,-34.02 -7.66,-8.5 -19.14,21.26 7.66,8.5 z" id="path6" inkscape:connector-curvature="0" style="fill:#06255b"/>
	<path class="st2" d="m 587.95,332.68 29,32.21 h -15.31 l -29,-32.21 z m -39.92,32.21 -149.78,-166.35 -7.66,8.5 142.12,157.84 h 15.32 z m -22.97,0 -138.3,-153.59 -7.66,8.5 130.64,145.09 z M 379.1,228.31 c 0,6.6 0,12.73 0,17.01 5.76,6.33 6.5,15.72 3.93,21.15 l -14,26.83 h 10.37 l -4.13,7.3 3.91,4.35 -2.65,4.66 2.57,3.74 -3.96,13.65 h 22.34 l 19.92,-5.13 9.64,10.83 h 46.05 z m 170.56,104.37 29,32.21 h 15.31 l -29,-32.21 z m -22.97,0 29,32.21 H 571 l -29,-32.21 z" id="path8" inkscape:connector-curvature="0" style="fill:#b1945f"/>
	<polygon class="st1" points="220.37,370.58 622.07,370.58 674.13,428.41 168.3,428.42 " id="polygon10" style="fill:#06255b"/>
	<path class="st3" d="m 564.97,332.68 h -15.32 l -113.12,-125.63 7.66,-8.5 z M 432.71,211.3 l -7.66,8.5 101.64,112.88 H 542 Z M 332.7,364.86 h 169.39 l -29,-32.18 H 361.7 Z" id="path12" inkscape:connector-curvature="0" style="fill:#299261"/>
	<g id="g38">
		<path class="st0" d="m 254.14,393.04 c -0.91,-0.78 -1.84,-1.29 -2.8,-1.55 -0.95,-0.26 -1.87,-0.38 -2.76,-0.38 -0.54,0 -1.07,0.08 -1.61,0.24 -0.54,0.16 -1.02,0.41 -1.45,0.74 -0.43,0.34 -0.79,0.78 -1.07,1.33 -0.28,0.55 -0.42,1.23 -0.42,2.03 v 7.85 c 0,0.81 0.14,1.48 0.42,2.03 0.28,0.55 0.64,0.99 1.09,1.33 0.44,0.34 0.93,0.58 1.47,0.74 0.54,0.16 1.07,0.24 1.61,0.24 0.86,0 1.74,-0.13 2.66,-0.38 0.91,-0.26 1.88,-0.77 2.9,-1.55 l 3.02,4.99 c -1.13,0.94 -2.45,1.64 -3.96,2.11 -1.52,0.47 -3.09,0.71 -4.73,0.71 -1.29,0 -2.58,-0.17 -3.88,-0.52 -1.3,-0.35 -2.47,-0.88 -3.5,-1.61 -1.03,-0.72 -1.87,-1.64 -2.52,-2.76 -0.64,-1.11 -0.97,-2.44 -0.97,-3.97 v -10.47 c 0,-1.53 0.32,-2.85 0.95,-3.96 0.63,-1.11 1.46,-2.04 2.48,-2.78 1.02,-0.74 2.17,-1.29 3.44,-1.65 1.27,-0.36 2.57,-0.54 3.88,-0.54 1.64,0 3.25,0.23 4.83,0.68 1.58,0.46 2.92,1.17 4.03,2.13 z" id="path14" inkscape:connector-curvature="0" style="fill:#ffffff"/>
		<path class="st0" d="m 280.11,407.77 h -8.94 l -1.65,5.48 h -6.88 l 9.78,-27.74 h 6.6 l 9.62,27.74 h -6.84 z m -7.33,-5.23 h 5.72 l -0.56,-1.89 -2.21,-7.65 h -0.16 l -2.21,7.65 z" id="path16" inkscape:connector-curvature="0" style="fill:#ffffff"/>
		<path class="st0" d="m 304.35,391.27 v 6.6 c 0,2.17 -0.11,4.2 -0.34,6.08 -0.23,1.88 -0.71,3.53 -1.43,4.95 -0.72,1.42 -1.78,2.56 -3.16,3.42 -1.38,0.86 -3.24,1.34 -5.58,1.45 l -0.97,-5.15 c 1.26,-0.32 2.24,-0.77 2.94,-1.35 0.7,-0.58 1.21,-1.29 1.55,-2.13 0.33,-0.85 0.54,-1.84 0.6,-2.98 0.07,-1.14 0.1,-2.45 0.1,-3.93 v -12.72 h 18.88 v 27.74 h -6.48 v -21.98 z" id="path18" inkscape:connector-curvature="0" style="fill:#ffffff"/>
		<path class="st0" d="m 341.26,407.77 h -8.94 l -1.65,5.48 h -6.88 l 9.78,-27.74 h 6.6 l 9.62,27.74 h -6.84 z m -7.32,-5.23 h 5.72 l -0.56,-1.89 -2.21,-7.65 h -0.16 l -2.21,7.65 z" id="path20" inkscape:connector-curvature="0" style="fill:#ffffff"/>
		<path class="st0" d="m 378.18,404.96 c 0,1.18 -0.17,2.27 -0.52,3.28 -0.35,1.01 -0.87,1.89 -1.55,2.64 -0.69,0.75 -1.53,1.33 -2.54,1.75 -1.01,0.42 -2.17,0.62 -3.48,0.62 H 356.6 v -27.74 h 12.96 c 1.45,0 2.68,0.21 3.7,0.62 1.02,0.42 1.86,0.97 2.52,1.67 0.66,0.7 1.13,1.5 1.43,2.41 0.3,0.91 0.44,1.88 0.44,2.9 0,0.48 -0.07,0.99 -0.22,1.53 -0.15,0.54 -0.36,1.06 -0.64,1.57 -0.28,0.51 -0.64,0.98 -1.07,1.41 -0.43,0.43 -0.93,0.78 -1.49,1.05 0.67,0.32 1.25,0.73 1.75,1.23 0.5,0.5 0.91,1.03 1.23,1.61 0.32,0.58 0.56,1.17 0.72,1.77 0.17,0.61 0.25,1.17 0.25,1.68 z m -7.17,-11.12 c 0,-0.78 -0.23,-1.42 -0.68,-1.91 -0.46,-0.5 -1.29,-0.74 -2.5,-0.74 H 363 v 5.03 h 4.83 c 1.13,0 1.94,-0.22 2.44,-0.66 0.5,-0.45 0.74,-1.02 0.74,-1.72 z m 0.29,10.87 c 0,-0.86 -0.25,-1.58 -0.75,-2.17 -0.5,-0.59 -1.31,-0.89 -2.44,-0.89 H 363 v 5.92 h 5.11 c 1.05,0 1.84,-0.26 2.38,-0.79 0.54,-0.52 0.81,-1.21 0.81,-2.07 z" id="path22" inkscape:connector-curvature="0" style="fill:#ffffff"/>
		<path class="st0" d="m 401.57,407.77 h -8.94 l -1.65,5.48 h -6.88 l 9.78,-27.74 h 6.6 l 9.62,27.74 h -6.84 z m -7.33,-5.23 h 5.72 l -0.56,-1.89 -2.21,-7.65 h -0.16 l -2.21,7.65 z" id="path24" inkscape:connector-curvature="0" style="fill:#ffffff"/>
		<path class="st0" d="m 427.13,391.27 v 21.98 h -6.4 v -21.98 h -7.04 v -5.76 h 20.45 v 5.76 z" id="path26" inkscape:connector-curvature="0" style="fill:#ffffff"/>
		<path class="st0" d="m 485.75,404.47 c 0,1.53 -0.27,2.86 -0.8,3.99 -0.54,1.13 -1.28,2.07 -2.23,2.82 -0.95,0.75 -2.06,1.31 -3.34,1.69 -1.27,0.38 -2.63,0.56 -4.08,0.56 -1.45,0 -2.8,-0.19 -4.06,-0.56 -1.26,-0.38 -2.36,-0.94 -3.31,-1.69 -0.95,-0.75 -1.7,-1.69 -2.25,-2.82 -0.55,-1.13 -0.82,-2.46 -0.82,-3.99 v -2.46 h -2.74 v 11.23 h -6.4 V 385.5 h 6.4 v 10.75 h 2.74 v -2.21 c 0,-1.53 0.3,-2.85 0.9,-3.95 0.6,-1.1 1.39,-2.01 2.37,-2.74 0.98,-0.72 2.09,-1.26 3.34,-1.61 1.25,-0.35 2.53,-0.52 3.84,-0.52 1.31,0 2.6,0.19 3.86,0.56 1.26,0.38 2.38,0.93 3.36,1.67 0.98,0.74 1.76,1.67 2.35,2.8 0.59,1.13 0.88,2.46 0.88,3.99 v 10.23 z m -6.4,-9.02 c 0,-0.8 -0.12,-1.48 -0.34,-2.03 -0.23,-0.55 -0.52,-0.99 -0.88,-1.33 -0.36,-0.34 -0.79,-0.58 -1.29,-0.74 -0.5,-0.16 -1,-0.24 -1.51,-0.24 -0.54,0 -1.05,0.08 -1.53,0.24 -0.48,0.16 -0.91,0.41 -1.29,0.74 -0.38,0.34 -0.68,0.78 -0.9,1.33 -0.23,0.55 -0.34,1.23 -0.34,2.03 v 7.85 c 0,0.81 0.12,1.48 0.34,2.03 0.23,0.55 0.53,0.99 0.9,1.33 0.38,0.34 0.81,0.58 1.29,0.74 0.48,0.16 0.99,0.24 1.53,0.24 0.51,0 1.01,-0.08 1.51,-0.24 0.5,-0.16 0.93,-0.41 1.29,-0.74 0.36,-0.34 0.66,-0.78 0.88,-1.33 0.23,-0.55 0.34,-1.23 0.34,-2.03 z" id="path28" inkscape:connector-curvature="0" style="fill:#ffffff"/>
		<path class="st0" d="m 503.34,391.27 v 6.6 c 0,2.17 -0.12,4.2 -0.34,6.08 -0.23,1.88 -0.71,3.53 -1.43,4.95 -0.72,1.42 -1.78,2.56 -3.16,3.42 -1.38,0.86 -3.24,1.34 -5.58,1.45 l -0.97,-5.15 c 1.26,-0.32 2.24,-0.77 2.94,-1.35 0.7,-0.58 1.21,-1.29 1.55,-2.13 0.33,-0.85 0.54,-1.84 0.6,-2.98 0.07,-1.14 0.1,-2.45 0.1,-3.93 v -12.72 h 18.88 v 27.74 h -6.48 v -21.98 z" id="path30" inkscape:connector-curvature="0" style="fill:#ffffff"/>
		<path class="st0" d="m 540.26,407.77 h -8.94 l -1.65,5.48 h -6.88 l 9.78,-27.74 h 6.6 l 9.62,27.74 h -6.84 z m -7.33,-5.23 h 5.72 l -0.56,-1.89 -2.21,-7.65 h -0.16 l -2.21,7.65 z" id="path32" inkscape:connector-curvature="0" style="fill:#ffffff"/>
		<path class="st0" d="m 555.6,385.51 h 19.37 v 5.68 H 562 v 5.23 h 11.07 v 5.68 H 562 v 5.47 h 12.96 v 5.68 H 555.6 Z" id="path34" inkscape:connector-curvature="0" style="fill:#ffffff"/>
		<path class="st0" d="m 604.79,404.96 c 0,1.18 -0.18,2.27 -0.52,3.28 -0.35,1.01 -0.87,1.89 -1.55,2.64 -0.68,0.75 -1.53,1.33 -2.54,1.75 -1.01,0.42 -2.17,0.62 -3.48,0.62 h -13.49 v -27.74 h 12.96 c 1.45,0 2.68,0.21 3.7,0.62 1.02,0.42 1.86,0.97 2.52,1.67 0.66,0.7 1.13,1.5 1.43,2.41 0.29,0.91 0.44,1.88 0.44,2.9 0,0.48 -0.07,0.99 -0.22,1.53 -0.15,0.54 -0.36,1.06 -0.64,1.57 -0.28,0.51 -0.64,0.98 -1.07,1.41 -0.43,0.43 -0.93,0.78 -1.49,1.05 0.67,0.32 1.25,0.73 1.75,1.23 0.5,0.5 0.91,1.03 1.23,1.61 0.32,0.58 0.56,1.17 0.72,1.77 0.17,0.61 0.25,1.17 0.25,1.68 z m -7.16,-11.12 c 0,-0.78 -0.23,-1.42 -0.69,-1.91 -0.46,-0.5 -1.29,-0.74 -2.5,-0.74 h -4.83 v 5.03 h 4.83 c 1.13,0 1.94,-0.22 2.44,-0.66 0.5,-0.45 0.75,-1.02 0.75,-1.72 z m 0.28,10.87 c 0,-0.86 -0.25,-1.58 -0.74,-2.17 -0.5,-0.59 -1.31,-0.89 -2.44,-0.89 h -5.11 v 5.92 h 5.11 c 1.05,0 1.84,-0.26 2.38,-0.79 0.53,-0.52 0.8,-1.21 0.8,-2.07 z" id="path36" inkscape:connector-curvature="0" style="fill:#ffffff"/>
	</g>
	<path class="st4" d="m 388.24,255.47 15.86,4.39 -13.14,0.23 -2.72,4.61 z m 6.45,15.04 9.79,-2.22 -9.83,-2.07 c -0.01,0 -1.08,2.11 0.04,4.29 z m -21.2,20.45 h 7.47 l 3.79,2.99 v -8.5 z m 7.55,5.7 -1.74,3.12 6.35,6.3 c -0.61,-3.41 -1.5,-7.06 -4.61,-9.42 z m 8.74,-13.69 v 26.2 l -8,3.49 -1.06,4.78 9.38,-3.58 4.69,-27.83 14.08,-12.42 z" id="path40" inkscape:connector-curvature="0" style="clip-rule:evenodd;fill:#ffffff;fill-rule:evenodd"/>
</g>
</svg>