<svg viewBox="0 0 60 60" fill="none" xmlns="http://www.w3.org/2000/svg">
<g opacity="0.1" clip-path="url(#clip0)">
<path d="M5.84358 19.8961L5.83514 19.8877C5.37741 19.4302 4.63561 19.4302 4.17788 19.8877C3.72027 20.3453 3.72027 21.0873 4.17788 21.5449L4.18644 21.5534C4.4153 21.7821 4.71518 21.8966 5.01506 21.8966C5.31495 21.8966 5.61483 21.7821 5.84369 21.5534C6.30119 21.0959 6.30119 20.3538 5.84358 19.8961Z" fill="white"/>
<path d="M41.2438 3.50035C40.7861 3.04285 40.0443 3.04285 39.5865 3.50035C39.1289 3.95796 39.1289 4.69999 39.5865 5.1576L39.5936 5.16452C39.8215 5.39245 40.1192 5.506 40.417 5.506C40.7173 5.506 41.0176 5.39069 41.2473 5.161C41.7048 4.70339 41.7014 3.95785 41.2438 3.50035Z" fill="white"/>
<path d="M59.1472 43.6168C58.9075 43.0156 58.2261 42.7224 57.6247 42.9624C57.0235 43.2022 56.7305 43.8838 56.9703 44.4848C58.0822 47.2726 57.8172 50.3602 56.3557 52.8747C55.7568 51.1997 54.3658 49.8711 52.5726 49.3979L52.2584 49.3149C52.702 48.5769 52.9577 47.7138 52.9577 46.7917V45.8156C52.9577 43.1062 50.7535 40.9021 48.0442 40.9021C45.3348 40.9021 43.1307 43.1062 43.1307 45.8156V46.7917C43.1307 47.7138 43.3864 48.5767 43.8299 49.3148L43.5156 49.3977C41.7234 49.8708 40.3326 51.1986 39.7334 52.8726C37.6015 49.1965 38.106 44.3993 41.2496 41.2557C43.9526 38.5526 47.9993 37.7078 51.5593 39.1045C52.1619 39.341 52.8417 39.0439 53.0781 38.4415C53.3144 37.839 53.0175 37.159 52.415 36.9226C47.9882 35.1861 42.9545 36.2363 39.5922 39.5985C39.0325 40.1581 38.5353 40.7638 38.1038 41.4064L27.4118 35.6894C28.9743 32.0721 28.9743 27.9363 27.4118 24.3191L38.1079 18.5998C38.5376 19.2423 39.032 19.8498 39.5923 20.4098C41.8499 22.6674 44.8514 23.9107 48.0441 23.9107C51.2367 23.9107 54.2382 22.6674 56.4958 20.4098C61.1561 15.7495 61.1561 8.16662 56.4958 3.50634C53.1129 0.123386 48.0548 -0.91735 43.6109 0.855452C43.0097 1.09522 42.7166 1.77677 42.9565 2.37783C43.1962 2.97899 43.878 3.27266 44.479 3.0322C48.0526 1.60697 52.119 2.4438 54.839 5.16359C57.9827 8.30724 58.4872 13.1044 56.3552 16.7804C55.7559 15.1065 54.3654 13.7786 52.5729 13.3056L52.2587 13.2226C52.7022 12.4846 52.9579 11.6215 52.9579 10.6995V9.72333C52.9579 7.01397 50.7538 4.8098 48.0444 4.8098C45.3351 4.8098 43.1309 7.01397 43.1309 9.72333V10.6995C43.1309 11.6215 43.3866 12.4845 43.8301 13.2225L43.5158 13.3055C41.7234 13.7786 40.3325 15.1065 39.7334 16.7809C38.2831 14.2825 38.0112 11.215 39.0986 8.44271C39.335 7.84025 39.038 7.16022 38.4356 6.92397C37.8331 6.68737 37.1532 6.98456 36.9168 7.58701C35.7646 10.5242 35.8403 13.7275 37.0028 16.5332L26.3076 22.252C25.7684 21.4169 25.1344 20.6257 24.4039 19.895C22.1855 17.6767 19.3747 16.2762 16.2752 15.8448C13.2778 15.4273 10.1672 15.9846 7.51653 17.4129C6.94677 17.7199 6.73372 18.4308 7.04063 19.0003C7.34778 19.5701 8.05875 19.7831 8.62805 19.4762C13.2358 16.9934 19.0417 17.8471 22.7465 21.5522C26.5896 25.3953 27.2629 31.2256 24.7677 35.7655C24.0217 33.7058 22.3062 32.0734 20.0974 31.4904L19.2139 31.2573C19.9189 30.2691 20.3354 29.0617 20.3354 27.7581V26.488C20.3354 23.1572 17.6256 20.4474 14.2948 20.4474C10.964 20.4474 8.25422 23.1572 8.25422 26.488V27.7581C8.25422 29.0618 8.6707 30.2691 9.3757 31.2573L8.49222 31.4905C6.28677 32.0726 4.57315 33.7008 3.82538 35.756C1.92402 32.2669 1.82758 27.9365 3.76702 24.3371C4.07405 23.7673 3.86112 23.0565 3.29136 22.7497C2.72124 22.4426 2.01086 22.6556 1.70394 23.2254C0.275437 25.8762 -0.281434 28.9868 0.135399 31.9841C0.566764 35.0836 1.96726 37.8946 4.18561 40.1129C6.97266 42.9 10.6337 44.2936 14.2947 44.2936C17.9558 44.2936 21.6167 42.9 24.4039 40.1129C25.1345 39.3823 25.7685 38.591 26.3074 37.7561L36.9964 43.4715C36.4028 44.9037 36.0917 46.453 36.0917 48.0501C36.0917 51.2427 37.3349 54.2442 39.5925 56.5018C41.9232 58.8322 44.9838 59.9972 48.0445 59.9972C51.1053 59.9972 54.1663 58.8321 56.4964 56.502C59.8792 53.1191 60.9198 48.0613 59.1472 43.6168ZM45.4746 9.72368C45.4746 8.30654 46.6275 7.15377 48.0445 7.15377C49.4616 7.15377 50.6144 8.30666 50.6144 9.72368V10.6998C50.6144 12.1169 49.4616 13.2696 48.0445 13.2696C46.6275 13.2696 45.4746 12.1168 45.4746 10.6998V9.72368ZM41.7551 18.8776V18.6337C41.7551 17.1974 42.7251 15.9385 44.1138 15.5719L45.8752 15.107C46.5298 15.4306 47.2661 15.6133 48.0443 15.6133C48.8227 15.6133 49.5588 15.4306 50.2133 15.1071L51.9746 15.572C53.3635 15.9384 54.3334 17.1975 54.3334 18.6339V19.213C54.3334 19.2153 54.3337 19.2176 54.3337 19.2198C52.5874 20.737 50.3802 21.5672 48.0442 21.5672C45.6898 21.5672 43.4659 20.7239 41.713 19.1838C41.7398 19.0861 41.7551 18.9838 41.7551 18.8776ZM10.598 26.4885C10.598 24.4501 12.2563 22.7917 14.295 22.7917C16.3334 22.7917 17.9919 24.45 17.9919 26.4885V27.7587C17.9919 29.7972 16.3335 31.4557 14.295 31.4557C12.2564 31.4557 10.598 29.7974 10.598 27.7587V26.4885ZM22.8313 38.3689C22.803 38.3979 22.7752 38.4272 22.7465 38.4559C18.0863 43.1163 10.5033 43.1163 5.84298 38.456C5.81392 38.427 5.78673 38.3967 5.75802 38.3675V38.0827C5.75802 36.0537 7.12829 34.2748 9.09023 33.7571L11.5126 33.1177C12.3459 33.5521 13.2917 33.7992 14.2947 33.7992C15.2977 33.7992 16.2434 33.5521 17.0767 33.1177L19.4991 33.7569C21.4609 34.2747 22.8313 36.0534 22.8313 38.0825V38.3689ZM45.4746 45.8158C45.4746 44.3987 46.6275 43.2459 48.0445 43.2459C49.4616 43.2459 50.6144 44.3988 50.6144 45.8158V46.792C50.6144 48.209 49.4616 49.3619 48.0445 49.3619C46.6275 49.3619 45.4746 48.209 45.4746 46.792V45.8158ZM41.7134 55.2758C41.7398 55.1781 41.7551 55.0758 41.7551 54.9697V54.726C41.7551 53.2898 42.7251 52.0306 44.1138 51.664L45.8751 51.1991C46.5298 51.5227 47.2661 51.7054 48.0443 51.7054C48.8225 51.7054 49.5588 51.5227 50.2135 51.1991L51.9746 51.664C53.3635 52.0305 54.3334 53.2895 54.3334 54.726V55.305C54.3334 55.3071 54.3337 55.3092 54.3337 55.3113C50.7218 58.4446 45.3119 58.4328 41.7134 55.2758Z" fill="white"/>
<path d="M56.5025 39.5925C56.0449 39.135 55.3031 39.135 54.8453 39.5925L54.8383 39.5995C54.3807 40.0572 54.3842 40.7957 54.8418 41.2532C55.0698 41.4811 55.369 41.5946 55.6688 41.5946C55.9707 41.5946 56.2729 41.4794 56.5026 41.2498C56.9601 40.7923 56.9601 40.0502 56.5025 39.5925Z" fill="white"/>
</g>
<defs>
<clipPath id="clip0">
<rect width="60" height="60" fill="white"/>
</clipPath>
</defs>
</svg>
