<svg viewBox="0 0 60 60" fill="none" xmlns="http://www.w3.org/2000/svg">
<path d="M56.0218 16.7084C51.6285 12.9855 51.1401 9.06666 50.9343 8.6003C50.7886 8.08275 50.3097 7.73292 49.7719 7.74698C49.2346 7.76302 48.7771 8.14283 48.6626 8.66822C48.4818 9.12135 48.2351 13.4668 43.4183 17.2079C41.3623 18.8065 40.206 20.7747 40.0743 22.8988C39.8018 27.269 42.3741 29.7181 43.5832 30.6198V35.8558H41.7177C41.7219 35.6435 41.7193 35.428 41.7078 35.209C41.5833 32.8337 40.0699 30.9659 37.3312 29.808C34.957 28.8033 34.6824 27.4312 34.6824 26.4865C34.6824 25.8397 34.158 25.3153 33.5112 25.3153C32.8643 25.3153 32.34 25.8397 32.34 26.4865C32.34 27.3955 32.0848 28.6999 29.9509 29.6923L24.1641 12.6379C25.9902 11.998 27.3039 10.2581 27.3039 8.21615C27.3039 6.03729 25.8087 4.20112 23.7904 3.67971V1.18897C23.7904 0.542128 23.2661 0.0177917 22.6192 0.0177917C21.9724 0.0177917 21.448 0.542128 21.448 1.18897V3.67959C19.4298 4.201 17.9345 6.03717 17.9345 8.21603C17.9345 10.2572 19.2472 11.9965 21.0722 12.6371L16.9987 24.5776C15.9051 23.643 14.9458 23.1402 13.6398 22.5524C12.2675 21.935 11.5788 21.625 11.1155 19.9771L10.88 19.1409C10.7344 18.6235 10.2548 18.2728 9.71765 18.2876C9.18032 18.3036 8.72286 18.6834 8.60831 19.2087L8.41296 20.1048C8.05728 21.7295 7.49499 21.9906 6.13666 22.6212C5.36685 22.9786 4.40882 23.4234 3.36402 24.2348C1.30813 25.8335 0.151711 27.8015 0.0200706 29.9258C-0.252462 34.2959 2.31979 36.7451 3.52892 37.6468V46.3963H1.18656C0.539722 46.3963 0.0153859 46.9206 0.0153859 47.5675V58.8108C0.0153859 59.4576 0.539722 59.982 1.18656 59.982H58.8085C59.4553 59.982 59.9797 59.4576 59.9797 58.8108V37.0269C59.9797 36.38 59.4553 35.8557 58.8085 35.8557H56.4661V30.6274C57.6805 29.7324 60.2533 27.2997 59.9797 22.8987C59.7697 19.5371 57.2498 17.7611 56.0218 16.7084ZM42.4122 23.0442C42.5024 21.5894 43.3247 20.2479 44.8557 19.0574C47.153 17.2731 48.8685 15.1026 49.9123 12.6823C50.8331 14.5705 52.1446 16.3229 53.7932 17.8602C52.2642 20.6394 47.724 27.8253 45.0158 28.7725C44.2202 28.2029 42.202 26.4138 42.4122 23.0442ZM33.5112 29.8945C34.1326 30.666 35.059 31.39 36.4187 31.9653C38.3008 32.7611 39.2934 33.8937 39.3687 35.3322C39.4894 37.6194 38.3842 38.9748 36.8939 39.3695H30.1272C29.6061 39.2374 27.4872 38.5033 27.6536 35.3322C27.7427 33.65 29.0523 32.6216 30.604 31.9652C31.9635 31.3899 32.8897 30.6659 33.5112 29.8945ZM35.8535 49.9099H31.1688V41.7117H35.8535V49.9099ZM22.6192 42.8829C21.9724 42.8829 21.448 43.4072 21.448 44.0541V46.3964H16.412V37.6522C17.0805 37.1568 18.1629 36.1912 18.9541 34.6835H25.3677C25.3426 34.857 25.3239 35.0315 25.3146 35.2089C25.1216 38.8862 27.1757 40.7098 28.8265 41.4002V46.3964H23.7904V44.0541C23.7904 43.4072 23.2661 42.8829 22.6192 42.8829ZM15.5607 26.4294C15.9484 26.7688 16.2841 27.1212 16.5614 27.4808C17.1858 28.2919 17.531 29.1636 17.5877 30.0716C17.7396 32.514 16.7078 34.5915 14.9014 35.8559H8.77017C11.3011 33.3668 13.8907 29.3893 15.5607 26.4294ZM26.308 32.3423H19.7749C19.9263 31.5676 19.9774 30.7598 19.9255 29.9259C19.8519 28.7451 19.47 27.6224 18.7906 26.5795L22.6162 15.3657L27.859 30.8169C27.2285 31.2669 26.7099 31.7768 26.308 32.3423ZM20.2769 8.21603C20.2769 6.92446 21.3277 5.87368 22.6192 5.87368C23.9108 5.87368 24.9616 6.92446 24.9616 8.21603C24.9616 9.50761 23.9108 10.5584 22.6192 10.5584C21.3277 10.5584 20.2769 9.50761 20.2769 8.21603ZM2.35797 30.0713C2.44816 28.6164 3.27044 27.275 4.8014 26.0845C5.63598 25.4362 6.39198 25.0852 7.12314 24.7458C8.10857 24.2883 9.11661 23.8202 9.8541 22.7187C10.6512 23.7761 11.6762 24.2374 12.6785 24.6884C12.9824 24.8252 13.2916 24.9646 13.6087 25.1246C12.0016 28.0121 7.58424 34.8819 4.9615 35.7996C4.1658 35.2298 2.14775 33.4407 2.35797 30.0713ZM5.87139 38.1971H14.0696V49.9101H9.38492V47.5677C9.38492 46.9209 8.86059 46.3965 8.21375 46.3965H5.87139V38.1971ZM50.6104 57.6397H45.9257V54.5947C45.9257 53.3031 46.9764 52.2523 48.268 52.2523C49.5596 52.2523 50.6104 53.3031 50.6104 54.5947V57.6397ZM57.6374 42.8829H53.8897C53.2428 42.8829 52.7185 43.4072 52.7185 44.0541C52.7185 44.7009 53.2428 45.2252 53.8897 45.2252H57.6374V57.6397H52.9527V54.5947C52.9527 52.0115 50.8512 49.9099 48.268 49.9099C45.6849 49.9099 43.5833 52.0115 43.5833 54.5947V57.6397H23.7904V54.5947C23.7904 53.9478 23.2661 53.4235 22.6192 53.4235C21.9724 53.4235 21.448 53.9478 21.448 54.5947V57.6397H2.35786V48.7388H7.04257V51.0811C7.04257 51.728 7.5669 52.2523 8.21375 52.2523H15.2408C15.8876 52.2523 16.412 51.728 16.412 51.0811V48.7388H28.8265V51.0811C28.8265 51.728 29.3508 52.2523 29.9976 52.2523H37.0247C37.6715 52.2523 38.1959 51.728 38.1959 51.0811V45.2252H43.3489C43.9958 45.2252 44.5201 44.7009 44.5201 44.0541C44.5201 43.4072 43.9958 42.8829 43.3489 42.8829H38.1959V41.3863C39.1547 40.9814 40.5782 40.0851 41.2905 38.1982H57.6374V42.8829ZM45.9257 35.8558V31.1699H54.1239V35.8558H45.9257ZM54.9608 28.8289H48.8265C51.3536 26.3434 53.9387 22.3725 55.6139 19.4027C56.8766 20.5055 57.5597 21.7286 57.6419 23.0445C57.8589 26.5355 55.6844 28.3316 54.9608 28.8289Z" fill="white" fill-opacity="0.1"/>
<path d="M48.6194 45.2252C49.2662 45.2252 49.7906 44.7009 49.7906 44.054C49.7906 43.4072 49.2662 42.8829 48.6194 42.8829C47.9726 42.8829 47.4482 43.4072 47.4482 44.054C47.4482 44.7009 47.9726 45.2252 48.6194 45.2252Z" fill="white" fill-opacity="0.1"/>
</svg>
