<svg viewBox="0 0 60 60" fill="none" xmlns="http://www.w3.org/2000/svg">
<g clip-path="url(#clip0)">
<path d="M27.562 55.3125H32.4385C33.0858 55.3125 33.6104 54.7879 33.6104 54.1406C33.6104 53.4934 33.0858 52.9688 32.4385 52.9688H27.562C26.9148 52.9688 26.3901 53.4934 26.3901 54.1406C26.3901 54.7879 26.9148 55.3125 27.562 55.3125Z" fill="white" fill-opacity="0.1"/>
<path d="M55.7812 9.07981H34.2709C34.3807 8.67527 34.4385 8.25551 34.4385 7.82965V4.79742C34.4385 2.15215 32.2864 0 29.6412 0C26.9959 0 24.8438 2.15215 24.8438 4.79742V7.82965C24.8438 8.25563 24.9015 8.67539 25.0113 9.07981H4.21875C3.57152 9.07981 3.04688 9.60445 3.04688 10.2517C3.04688 13.4373 5.36988 16.0905 8.4109 16.6063C8.86699 19.2957 10.9949 21.4236 13.6843 21.8797C14.2001 24.9209 16.8533 27.2439 20.0389 27.2439H23.4425L24.7815 48.2812H18.2812C17.6903 48.2812 17.1918 48.7213 17.1184 49.3078L15.9465 58.6828C15.9048 59.0163 16.0084 59.3517 16.2308 59.6037C16.4532 59.8556 16.7733 60 17.1094 60H42.8906C43.2267 60 43.5468 59.8557 43.7692 59.6037C43.9916 59.3517 44.0952 59.0163 44.0535 58.6828L42.8816 49.3078C42.8084 48.7214 42.3098 48.2812 41.7188 48.2812H34.5008L34.8316 43.0822C34.8728 42.4363 34.3825 41.8794 33.7365 41.8383C33.0908 41.798 32.5337 42.2875 32.4926 42.9334L32.1523 48.2812H27.1301L25.7249 26.2036C25.7118 25.9969 25.644 25.7974 25.5287 25.6254L23.1151 22.0254L22.7058 15.5932C22.5994 13.922 22.744 13.3059 24.8727 12.4042L27.4065 11.3306C27.7555 11.1827 28.0114 10.8754 28.0935 10.5054C28.1755 10.1354 28.0737 9.74859 27.82 9.46711C27.4121 9.01453 27.1875 8.43293 27.1875 7.82953V4.79742C27.1875 3.44449 28.2882 2.34375 29.6412 2.34375C30.9941 2.34375 32.0948 3.44449 32.0948 4.79742V7.82965C32.0948 8.43305 31.8702 9.01465 31.4624 9.46723C31.2087 9.74871 31.1068 10.1355 31.1889 10.5055C31.2709 10.8755 31.5268 11.183 31.8758 11.3307L34.4096 12.4043C36.5384 13.3062 36.683 13.9222 36.5766 15.5933L36.1672 22.0255L33.7536 25.6255C33.6383 25.7975 33.5706 25.997 33.5575 26.2037L33.1625 32.4083C33.1214 33.0543 33.6117 33.6111 34.2577 33.6523C34.9038 33.6925 35.4606 33.2031 35.5016 32.5572L35.8398 27.2439H39.9612C43.1468 27.2439 45.8 24.9209 46.3158 21.8797C49.0052 21.4236 51.133 19.2957 51.5892 16.6063C54.6301 16.0905 56.9531 13.4373 56.9531 10.2517C56.9531 9.60445 56.4285 9.07981 55.7812 9.07981ZM41.5631 57.6562H18.4369L19.3158 50.625H40.6841L41.5631 57.6562ZM5.56113 11.4236H21.895C20.8778 12.2479 20.4696 13.1926 20.3686 14.3532H9.49219C7.6377 14.3532 6.06668 13.116 5.56113 11.4236ZM10.8355 16.697H20.4275L20.614 19.6267H14.7656C12.9111 19.6267 11.3411 18.3892 10.8355 16.697ZM16.1089 21.9704H20.7632L20.7962 22.4899C20.8093 22.6965 20.8771 22.8961 20.9924 23.0681L22.2207 24.9002H20.0391C18.1846 24.9001 16.6145 23.6626 16.1089 21.9704ZM39.9611 24.9001H37.0617L38.2901 23.068C38.4054 22.896 38.4731 22.6965 38.4862 22.4898L38.5193 21.9703H43.8912C43.3855 23.6626 41.8154 24.9001 39.9611 24.9001ZM45.2345 19.6267H38.6684L38.8548 16.697H49.1645C48.6589 18.3892 47.0889 19.6267 45.2345 19.6267ZM50.5078 14.3532H38.9136C38.8126 13.1926 38.4045 12.2479 37.3873 11.4236H54.4388C53.9333 13.116 52.3623 14.3532 50.5078 14.3532Z" fill="white" fill-opacity="0.1"/>
<path d="M33.9976 36.5734C33.3504 36.5734 32.8262 37.098 32.8262 37.7452C32.8262 38.3925 33.3512 38.9171 33.9984 38.9171C34.6456 38.9171 35.1703 38.3925 35.1703 37.7452C35.1703 37.098 34.6456 36.5734 33.9984 36.5734H33.9976Z" fill="white" fill-opacity="0.1"/>
</g>
<defs>
<clipPath id="clip0">
<rect width="60" height="60" fill="white"/>
</clipPath>
</defs>
</svg>
