<svg viewBox="0 0 60 60" fill="none" xmlns="http://www.w3.org/2000/svg">
<g clip-path="url(#clip0)">
<path d="M44.9081 35.2636H35.9815V31.8052C39.0091 29.84 41.0159 26.4297 41.0159 22.5592V16.0017C44.2963 14.9578 46.68 11.8831 46.68 8.26118C46.68 5.08737 44.8136 2.18626 41.9254 0.87059L40.5808 0.258047C39.6954 -0.145432 38.678 -0.0720722 37.8594 0.454572C37.0411 0.981098 36.5524 1.87642 36.5524 2.84966C36.5524 3.12764 36.3263 3.35369 36.0483 3.35369H24.064C20.4719 3.35369 17.5494 6.27613 17.5494 9.86818C17.5494 11.4082 18.0877 12.824 18.9844 13.9404V22.5593C18.9844 26.4299 20.9913 29.8401 24.0188 31.8054V35.2637H15.0922C9.98693 35.2637 5.49499 38.5228 3.91448 43.3736C3.71397 43.9889 4.0503 44.6504 4.66565 44.8509C4.78624 44.8901 4.90858 44.9089 5.02894 44.9089C5.52253 44.9089 5.98179 44.5945 6.14293 44.0997C7.15051 41.0072 9.63736 38.7245 12.6727 37.9225L14.9674 44.9616H12.4023C12.0129 44.9616 11.6489 45.1551 11.431 45.4778C11.2132 45.8006 11.1698 46.2105 11.3155 46.5717L15.7838 57.6566H5.68214V54.2581C5.68214 53.6109 5.15737 53.0863 4.51026 53.0863C3.86315 53.0863 3.33838 53.6109 3.33838 54.2581V58.8285C3.33838 59.4757 3.86315 60.0004 4.51026 60.0004H55.49C56.1372 60.0004 56.6619 59.4757 56.6619 58.8285V47.0176C56.6619 40.5363 51.3892 35.2636 44.9081 35.2636ZM44.9646 37.6087L42.304 45.7701C42.1878 46.1269 42.2493 46.5179 42.4699 46.8216C42.6903 47.1254 43.0429 47.3051 43.4183 47.3051H45.8621L41.6896 57.6564H36.1937L39.5471 37.6075H44.908C44.9269 37.6073 44.9456 37.6086 44.9646 37.6087ZM38.6721 17.2967C38.6721 19.3645 36.9899 21.0468 34.9221 21.0468C32.8543 21.0468 31.1721 19.3645 31.1721 17.2967V16.3824C31.1721 16.3824 38.6342 16.3801 38.6721 16.3795V17.2967ZM21.3283 16.3788L28.8283 16.3824V17.2967C28.8283 19.3645 27.1461 21.0468 25.0783 21.0468C23.0105 21.0468 21.3283 19.3645 21.3283 17.2967V16.3788ZM24.064 5.69734H36.0483C37.6186 5.69734 38.8962 4.41987 38.8962 2.84955C38.8962 2.61025 39.0412 2.48123 39.1276 2.42556C39.2139 2.37001 39.3912 2.2915 39.6092 2.39076L40.9538 3.0033C43.0086 3.9394 44.3362 6.0032 44.3362 8.26118C44.3362 11.3985 41.8222 13.9581 38.703 14.0352H23.9197C21.6865 13.9586 19.8932 12.1195 19.8932 9.86807C19.8933 7.56825 21.7642 5.69734 24.064 5.69734ZM21.3283 22.5591V22.0948C22.3632 22.9055 23.6648 23.3905 25.0783 23.3905C27.0983 23.3905 28.8908 22.4018 30.0002 20.8838C31.1096 22.4018 32.9021 23.3905 34.9221 23.3905C36.3356 23.3905 37.6372 22.9054 38.6721 22.0948V22.5591C38.6721 27.3408 34.782 31.231 30.0002 31.231C25.2185 31.231 21.3283 27.3408 21.3283 22.5591ZM25.1908 37.6073C25.8379 37.6073 26.3627 37.0827 26.3627 36.4355V32.9568C27.502 33.3566 28.726 33.5748 30.0002 33.5748C31.2744 33.5748 32.4984 33.3566 33.6377 32.9568V36.4355C33.6377 37.0827 34.1625 37.6073 34.8096 37.6073H37.1707L33.8174 57.6563H26.1829L22.8296 37.6073H25.1908ZM14.1382 47.3051H16.582C16.9574 47.3051 17.31 47.1254 17.5305 46.8216C17.751 46.5179 17.8125 46.1269 17.6963 45.77L15.0356 37.6084C15.0546 37.6083 15.0734 37.6072 15.0922 37.6072H20.4531L23.8065 57.6561H18.3106L14.1382 47.3051ZM54.3182 57.6563H44.2165L48.6848 46.5713C48.8305 46.2101 48.7871 45.8002 48.5693 45.4775C48.3514 45.1547 47.9874 44.9613 47.598 44.9613H45.0328L47.327 37.9239C51.3472 38.9943 54.3183 42.6647 54.3183 47.0174V57.6563H54.3182Z" fill="white" fill-opacity="0.1"/>
<path d="M32.1988 27.4369C32.6564 26.9793 32.6564 26.2372 32.1988 25.7795C31.741 25.3219 30.9992 25.3219 30.5414 25.7795C30.3968 25.9242 30.2044 26.0039 29.9997 26.0039C29.7951 26.0039 29.6027 25.9242 29.4581 25.7795C29.0004 25.3219 28.2586 25.3219 27.8007 25.7795C27.3431 26.2371 27.3431 26.9792 27.8007 27.4369C28.4071 28.0431 29.2033 28.3463 29.9997 28.3463C30.7963 28.3463 31.5926 28.0431 32.1988 27.4369Z" fill="white" fill-opacity="0.1"/>
<path d="M30.0156 47.6753C30.3238 47.6753 30.6262 47.5511 30.8441 47.3331C31.062 47.114 31.1875 46.8128 31.1875 46.5035C31.1875 46.1953 31.0621 45.8941 30.8441 45.6749C30.6262 45.457 30.3238 45.3328 30.0156 45.3328C29.7063 45.3328 29.4051 45.457 29.1871 45.6749C28.968 45.8929 28.8438 46.1953 28.8438 46.5035C28.8438 46.8128 28.968 47.114 29.1871 47.3331C29.4051 47.5511 29.7063 47.6753 30.0156 47.6753Z" fill="white" fill-opacity="0.1"/>
<path d="M30.0156 40.9768C30.3238 40.9768 30.6262 40.8514 30.8441 40.6334C31.062 40.4143 31.1875 40.1131 31.1875 39.8049C31.1875 39.4967 31.0621 39.1944 30.8441 38.9764C30.6262 38.7573 30.3238 38.633 30.0156 38.633C29.7063 38.633 29.4051 38.7573 29.1871 38.9764C28.968 39.1944 28.8438 39.4967 28.8438 39.8049C28.8438 40.1131 28.968 40.4155 29.1871 40.6334C29.4051 40.8514 29.7063 40.9768 30.0156 40.9768Z" fill="white" fill-opacity="0.1"/>
<path d="M30.0156 54.3749C30.3238 54.3749 30.6262 54.2507 30.8441 54.0316C31.062 53.8136 31.1875 53.5112 31.1875 53.203C31.1875 52.8948 31.0621 52.5937 30.8441 52.3745C30.6262 52.1566 30.3238 52.0312 30.0156 52.0312C29.7063 52.0312 29.4051 52.1566 29.1871 52.3745C28.968 52.5925 28.8438 52.8948 28.8438 53.203C28.8438 53.5124 28.968 53.8136 29.1871 54.0316C29.4051 54.2507 29.7063 54.3749 30.0156 54.3749Z" fill="white" fill-opacity="0.1"/>
<path d="M5.50781 12.3435H6.32812V13.1638C6.32812 13.811 6.85289 14.3357 7.5 14.3357C8.14711 14.3357 8.67188 13.811 8.67188 13.1638V12.3435H9.49219C10.1393 12.3435 10.6641 11.8188 10.6641 11.1716C10.6641 10.5244 10.1393 9.99973 9.49219 9.99973H8.67188V9.17942C8.67188 8.53219 8.14711 8.00754 7.5 8.00754C6.85289 8.00754 6.32812 8.53219 6.32812 9.17942V9.99973H5.50781C4.8607 9.99973 4.33594 10.5244 4.33594 11.1716C4.33594 11.8188 4.86059 12.3435 5.50781 12.3435Z" fill="white" fill-opacity="0.1"/>
<path d="M50.5078 26.3229H51.3281V27.1432C51.3281 27.7904 51.8529 28.3151 52.5 28.3151C53.1471 28.3151 53.6719 27.7904 53.6719 27.1432V26.3229H54.4922C55.1393 26.3229 55.6641 25.7983 55.6641 25.151C55.6641 24.5038 55.1393 23.9792 54.4922 23.9792H53.6719V23.1588C53.6719 22.5116 53.1471 21.987 52.5 21.987C51.8529 21.987 51.3281 22.5116 51.3281 23.1588V23.9792H50.5078C49.8607 23.9792 49.3359 24.5038 49.3359 25.151C49.3359 25.7983 49.8606 26.3229 50.5078 26.3229Z" fill="white" fill-opacity="0.1"/>
<path d="M4.51074 50.1562C4.81894 50.1562 5.12129 50.0308 5.33914 49.8128C5.55711 49.5948 5.68262 49.2925 5.68262 48.9843C5.68262 48.6761 5.55722 48.3738 5.33914 48.1558C5.12129 47.9378 4.81894 47.8124 4.51074 47.8124C4.20125 47.8124 3.90019 47.9378 3.68223 48.1558C3.46309 48.3738 3.33887 48.6761 3.33887 48.9843C3.33887 49.2925 3.46309 49.5948 3.68223 49.8128C3.90019 50.0308 4.20242 50.1562 4.51074 50.1562Z" fill="white" fill-opacity="0.1"/>
</g>
<defs>
<clipPath id="clip0">
<rect width="60" height="60" fill="white"/>
</clipPath>
</defs>
</svg>
