<svg viewBox="0 0 60 60" fill="none" xmlns="http://www.w3.org/2000/svg">
<path d="M29.9788 60C29.482 60 29.0289 59.6738 28.869 59.2043C28.7093 58.7355 28.8713 58.1991 29.2656 57.8987C29.6459 57.6092 30.1702 57.5802 30.5809 57.824C31.0006 58.0731 31.2234 58.5782 31.1274 59.0567C31.0186 59.5977 30.5315 60 29.9788 60Z" fill="white" fill-opacity="0.1"/>
<path d="M58.8281 51.4093H50.2713V32.4609C50.2713 31.8138 49.7467 31.2891 49.0995 31.2891H41.5453V19.6301C41.5453 18.983 41.0205 18.4582 40.3734 18.4582H38.6139V9.38215C38.6139 8.73504 38.0891 8.21027 37.442 8.21027H36.2687V1.17188C36.2687 0.524648 35.7439 0 35.0968 0H24.9029C24.2557 0 23.7311 0.524648 23.7311 1.17188V8.21027H22.5578C21.9105 8.21027 21.3859 8.73504 21.3859 9.38215V18.4582H19.6263C18.9791 18.4582 18.4545 18.983 18.4545 19.6301V31.2891H10.9005C10.2533 31.2891 9.72867 31.8138 9.72867 32.4609V51.4093H1.17188C0.524648 51.4093 0 51.9341 0 52.5812V58.8281C0 59.1389 0.123516 59.4369 0.343242 59.6568C0.562969 59.8765 0.861094 60 1.17188 60H24.7023C25.3495 60 25.8742 59.4752 25.8742 58.8281C25.8742 58.181 25.3495 57.6562 24.7023 57.6562H2.34375V53.7531H57.6562V57.6562H35.2976C34.6504 57.6562 34.1257 58.181 34.1257 58.8281C34.1257 59.4752 34.6504 60 35.2976 60H58.8281C59.4752 60 60 59.4752 60 58.8281V52.5812C60 51.9341 59.4752 51.4093 58.8281 51.4093ZM26.0749 2.34375H33.9251V8.21027H31.1719V5.6707C31.1719 5.02359 30.6471 4.49883 30 4.49883C29.3528 4.49883 28.8281 5.02359 28.8281 5.6707V8.21027H26.0749V2.34375ZM23.7298 10.554H36.2702V18.4582H33.8672V14.7641C33.8672 14.117 33.3424 13.5922 32.6953 13.5922C32.0481 13.5922 31.5234 14.117 31.5234 14.7641V18.4582H28.4766V14.7641C28.4766 14.117 27.9519 13.5922 27.3047 13.5922C26.6575 13.5922 26.1328 14.117 26.1328 14.7641V18.4582H23.7298V10.554ZM12.0724 33.6328H18.4546V51.4093H12.0724V33.6328ZM20.7983 20.802H39.2017V51.4095H36.5625V26.0031C36.5625 25.356 36.0377 24.8312 35.3906 24.8312C34.7435 24.8312 34.2188 25.356 34.2188 26.0031V51.4095H31.1719V26.0031C31.1719 25.356 30.6471 24.8312 30 24.8312C29.3528 24.8312 28.8281 25.356 28.8281 26.0031V51.4095H25.7812V26.0031C25.7812 25.356 25.2566 24.8312 24.6094 24.8312C23.9621 24.8312 23.4375 25.356 23.4375 26.0031V51.4095H20.7983V20.802ZM41.5454 51.4093V33.6328H47.9277V51.4093H41.5454Z" fill="white" fill-opacity="0.1"/>
</svg>
