<svg viewBox="0 0 60 60" fill="none" xmlns="http://www.w3.org/2000/svg">
<g opacity="0.1" clip-path="url(#clip0)">
<path d="M22.6824 55.3961H24.4775C25.1247 55.3961 25.6493 54.8715 25.6493 54.2242C25.6493 53.577 25.1247 53.0524 24.4775 53.0524H22.6824C22.0351 53.0524 21.5105 53.577 21.5105 54.2242C21.5105 54.8715 22.0351 55.3961 22.6824 55.3961Z" fill="white"/>
<path d="M22.9508 7.16476C23.3661 7.44191 23.9242 7.42164 24.319 7.11683C24.7054 6.81859 24.8664 6.29254 24.7151 5.82894C24.5675 5.37707 24.1523 5.0555 23.6783 5.02293C23.1897 4.98929 22.7208 5.27711 22.5265 5.72605C22.3058 6.23558 22.4832 6.85867 22.9508 7.16476Z" fill="white"/>
<path d="M51.4306 21.0499H41.4139V6.18891C41.4139 2.77629 38.6376 0 35.225 0H11.9356C8.52287 0 5.74658 2.77629 5.74658 6.18891V53.8111C5.74658 57.2237 8.52287 60 11.9356 60H35.225C38.6376 60 41.414 57.2237 41.414 53.8111V43.9603H41.8422L45.5545 46.7719C45.7612 46.9284 46.0102 47.0095 46.2621 47.0095C46.4001 47.0095 46.5388 46.9852 46.6719 46.9355C47.0479 46.7951 47.3258 46.472 47.4086 46.0794L47.8552 43.9603H51.4306C52.987 43.9603 54.2533 42.6941 54.2533 41.1377V23.8725C54.2533 22.3161 52.987 21.0499 51.4306 21.0499ZM39.0701 53.8111C39.0701 55.9314 37.3451 57.6562 35.2249 57.6562H11.9356C9.81533 57.6562 8.09033 55.9314 8.09033 53.8111V50.792H39.0701V53.8111ZM39.0701 48.4482H8.09033V6.18891C8.09033 4.06863 9.81533 2.34375 11.9356 2.34375H12.0514V5.17887C12.0514 6.38309 13.0311 7.36277 14.2354 7.36277H18.2827C18.9299 7.36277 19.4546 6.83812 19.4546 6.1909C19.4546 5.54367 18.9299 5.01902 18.2827 5.01902H14.3951V2.34375H32.7654V5.01914H28.8779C28.2306 5.01914 27.706 5.54379 27.706 6.19102C27.706 6.83824 28.2306 7.36289 28.8779 7.36289H32.9252C34.1294 7.36289 35.1092 6.3832 35.1092 5.17898V2.34375H35.225C37.3453 2.34375 39.0703 4.06863 39.0703 6.18891V21.0499H35.3813V14.4108C35.3813 13.7636 34.8565 13.2389 34.2094 13.2389H12.9512C12.304 13.2389 11.7793 13.7636 11.7793 14.4108V25.1967C11.7793 25.8439 12.304 26.3686 12.9512 26.3686H25.66V30.8354H12.9512C12.304 30.8354 11.7793 31.3601 11.7793 32.0073V42.7934C11.7793 43.4406 12.304 43.9652 12.9512 43.9652L39.0703 43.9603V48.4482H39.0701ZM25.7015 41.6215H14.1229V33.1792H25.6599V41.1377C25.66 41.3026 25.6743 41.4643 25.7015 41.6215ZM25.66 23.8725V24.0248H14.123V15.5827H33.0376V21.0499H28.4826C26.9261 21.0499 25.66 22.3161 25.66 23.8725ZM51.9096 41.1377C51.9096 41.4018 51.6947 41.6166 51.4306 41.6166H46.9047C46.3506 41.6166 45.8723 42.0046 45.758 42.5467L45.4963 43.7878L42.9433 41.8542C42.7397 41.7 42.4913 41.6166 42.2358 41.6166H28.4826C28.2186 41.6166 28.0038 41.4018 28.0038 41.1377V23.8725C28.0038 23.6085 28.2186 23.3937 28.4826 23.3937H51.4306C51.6947 23.3937 51.9096 23.6085 51.9096 23.8725V41.1377Z" fill="white"/>
<path d="M43.4062 25.7013C42.2103 25.7013 41.1137 26.1652 40.2422 27.0249C39.3708 26.1652 38.2743 25.7013 37.0784 25.7013C35.7258 25.7013 34.4899 26.2584 33.5985 27.27C32.7747 28.2048 32.3209 29.4452 32.3209 30.7625C32.3209 32.1579 32.8622 33.48 33.9758 34.8045C34.3943 35.3022 35.4555 36.199 37.1297 37.4699C39.7302 39.4438 39.8285 39.4438 40.2424 39.4438C40.6562 39.4438 40.7546 39.4438 43.3551 37.4699C45.0293 36.199 46.0905 35.3022 46.5088 34.8045C47.6226 33.4801 48.164 32.1579 48.164 30.7625C48.164 29.4452 47.7102 28.2049 46.8863 27.2698C45.9947 26.2583 44.7589 25.7013 43.4062 25.7013ZM44.7149 33.2962C44.1654 33.9498 41.4721 35.9785 40.2424 36.8585C39.0128 35.9786 36.3195 33.9499 35.7699 33.2962C35.0056 32.3872 34.6647 31.6058 34.6647 30.7625C34.6647 30.016 34.9105 29.326 35.3568 28.8195C35.7971 28.3201 36.4084 28.045 37.0784 28.045C37.8183 28.045 38.4481 28.4042 38.9501 29.1129C39.0417 29.2424 39.1292 29.3841 39.2098 29.5343C39.4139 29.9148 39.8106 30.1521 40.2424 30.1521H40.2428C40.6746 30.152 41.0713 29.9144 41.2755 29.5338C41.3557 29.3841 41.4429 29.2425 41.5347 29.1129C42.0367 28.4043 42.6664 28.045 43.4064 28.045C44.0765 28.045 44.688 28.3201 45.1279 28.8194C45.5745 29.326 45.8202 30.0161 45.8202 30.7625C45.8201 31.6058 45.4793 32.3872 44.7149 33.2962Z" fill="white"/>
</g>
<defs>
<clipPath id="clip0">
<rect width="60" height="60" fill="white"/>
</clipPath>
</defs>
</svg>
