<svg viewBox="0 0 60 60" fill="none" xmlns="http://www.w3.org/2000/svg">
<path fill-rule="evenodd" clip-rule="evenodd" d="M55.2645 24.2198H15.2834L53.6857 13.0952C53.9842 13.0087 54.2359 12.8069 54.3861 12.5349C54.5362 12.2626 54.5719 11.9421 54.4854 11.6437L52.4758 4.70627C51.6729 1.93542 49.093 0 46.2017 0C45.5924 0 44.9854 0.0865173 44.3968 0.256805L8.34101 10.7016C6.67337 11.1845 5.29138 12.2932 4.44864 13.8226C3.60636 15.352 3.4086 17.113 3.89154 18.7802L5.85489 25.5579V53.4782C5.85489 57.0744 8.78046 60 12.3762 60H26.4579C27.1052 60 27.6298 59.4754 27.6298 58.8281C27.6298 58.1808 27.1052 57.6562 26.4579 57.6562H12.3766C10.0727 57.6562 8.19864 55.7822 8.19864 53.4782V37.5307H14.2022H14.205H14.2072H23.3845H23.3872H23.39H32.5672H32.57H32.5727H41.75H41.7527H41.755H54.0927V53.4782C54.0927 55.7822 52.2186 57.6562 49.9146 57.6562H35.8329C35.1861 57.6562 34.661 58.1808 34.661 58.8281C34.661 59.4754 35.1861 60 35.8329 60H49.9146C53.5108 60 56.4364 57.0744 56.4364 53.4782V25.3917C56.4364 24.7444 55.9118 24.2198 55.2645 24.2198ZM34.6006 35.1869L39.5797 26.5636H46.0557L41.0771 35.1869H34.6006ZM25.4179 35.1869L30.397 26.5636H36.873L31.8943 35.1869H25.4179ZM16.2356 35.1869L21.2142 26.5636H27.6907L22.7116 35.1869H16.2356ZM20.5926 20.0162L12.2549 12.0081L18.502 10.1985C18.5459 10.2626 18.5972 10.323 18.6558 10.3793L26.9935 18.3875L20.7464 20.197C20.7025 20.1329 20.6507 20.072 20.5926 20.0162ZM36.2957 5.26932L44.6334 13.2774L38.3863 15.087C38.3424 15.0229 38.2911 14.962 38.2325 14.9062L29.8948 6.89804L36.1419 5.0885C36.1859 5.15259 36.2371 5.21301 36.2957 5.26932ZM27.4755 7.82455L35.8132 15.8322L29.5661 17.6422C29.5222 17.5781 29.4709 17.5172 29.4123 17.4614L21.0746 9.45328L27.3217 7.64374C27.3661 7.70737 27.4174 7.76825 27.4755 7.82455ZM45.0491 2.50809C45.4254 2.39914 45.8131 2.34375 46.2017 2.34375C48.0561 2.34375 49.71 3.58337 50.2245 5.35858L51.9082 11.1699L47.2065 12.5317C47.1621 12.4677 47.1108 12.4072 47.0522 12.3509L38.715 4.34326L45.0491 2.50809ZM6.50171 14.9533C7.04187 13.9723 7.92673 13.2619 8.99332 12.9529L9.6818 12.7533C9.7262 12.8174 9.77747 12.8783 9.8356 12.9341L18.1733 20.9422L7.82648 23.9397L6.14282 18.1284C5.83383 17.0622 5.96155 15.9348 6.50171 14.9533ZM8.19864 26.5636H18.5079L13.5293 35.1869H8.19864V26.5636ZM43.7834 35.1869L48.762 26.5636H54.0927V35.1869H43.7834Z" fill="white" fill-opacity="0.1"/>
<path fill-rule="evenodd" clip-rule="evenodd" d="M39.2486 47.4742C39.2486 47.0554 39.0253 46.6686 38.6627 46.4594L28.3671 40.5153C28.0046 40.3061 27.5578 40.3061 27.1953 40.5153C26.8327 40.7245 26.6093 41.1113 26.6093 41.5302V53.4183C26.6093 53.8367 26.8327 54.2235 27.1953 54.4327C27.3765 54.5375 27.5789 54.5902 27.7812 54.5902C27.9835 54.5902 28.1859 54.5375 28.3671 54.4327L38.6627 48.4891C39.0253 48.2799 39.2486 47.8931 39.2486 47.4742ZM28.9531 51.3886V43.5599L35.733 47.4742L28.9531 51.3886Z" fill="white" fill-opacity="0.1"/>
<path fill-rule="evenodd" clip-rule="evenodd" d="M31.1452 57.6562C30.4998 57.6562 29.9734 58.1827 29.9734 58.8281C29.9734 59.4736 30.4998 60 31.1452 60C31.7911 60 32.3171 59.4736 32.3171 58.8281C32.3171 58.1827 31.7911 57.6562 31.1452 57.6562Z" fill="white" fill-opacity="0.1"/>
</svg>
