<svg viewBox="0 0 60 60" fill="none" xmlns="http://www.w3.org/2000/svg">
<g clip-path="url(#clip0)">
<path d="M17.2736 28.0723C17.0818 27.612 16.6074 27.3158 16.1086 27.352C15.6219 27.3873 15.201 27.7299 15.0659 28.1987C14.9304 28.6688 15.1122 29.1885 15.5097 29.4731C15.9022 29.7539 16.4405 29.7623 16.8424 29.4951C17.302 29.1894 17.4857 28.5814 17.2736 28.0723Z" fill="white" fill-opacity="0.1"/>
<path d="M52.2167 23.8522H52.2139C51.1463 23.8522 50.1772 24.2816 49.47 24.977C48.7626 24.2816 47.7929 23.8522 46.7238 23.8522C45.6562 23.8522 44.687 24.2816 43.9799 24.977C43.2979 24.3067 42.3721 23.8835 41.3485 23.854C41.5737 23.6258 41.7633 23.42 41.9187 23.2351C44.9018 19.6873 46.2912 16.3459 46.2912 12.7194C46.2912 9.37031 45.1488 6.22945 43.0743 3.87539C40.872 1.37637 37.8174 0 34.4734 0C29.7494 0 26.7803 2.79105 25.1212 5.13258C25.1073 5.15215 25.0935 5.1716 25.0798 5.19129C25.066 5.17172 25.0522 5.15203 25.0383 5.13246C23.3793 2.79105 20.4101 0 15.6862 0C12.3422 0 9.28762 1.37637 7.08508 3.87551C5.01063 6.22945 3.86829 9.37031 3.86829 12.7194C3.86829 16.3459 5.25766 19.6873 8.24079 23.2352C8.79004 23.8884 9.76915 24.8066 11.2339 26.0425C11.4538 26.228 11.7221 26.3187 11.9889 26.3187C12.3222 26.3187 12.6534 26.1771 12.8852 25.9024C13.3026 25.4078 13.2398 24.6684 12.7451 24.2511C11.0727 22.8402 10.3481 22.0997 10.0346 21.7269C7.42668 18.6252 6.21192 15.763 6.21192 12.7195C6.21192 9.94137 7.14649 7.35082 8.84336 5.4252C10.5946 3.43805 13.0248 2.34375 15.6862 2.34375C19.4086 2.34375 21.7866 4.59715 23.1259 6.4875C23.453 6.94898 23.763 7.4516 24.047 7.98152C24.2512 8.36203 24.648 8.59945 25.0798 8.59945C25.5115 8.59945 25.9084 8.36191 26.1125 7.98141C26.3962 7.4523 26.7061 6.94969 27.0336 6.4875C28.373 4.59715 30.751 2.34375 34.4734 2.34375C37.1349 2.34375 39.565 3.43805 41.3161 5.42496C43.013 7.3507 43.9477 9.94113 43.9477 12.7194C43.9477 15.763 42.7331 18.6252 40.125 21.7268C40.0238 21.8471 39.8764 22.0097 39.662 22.2258V13.5661C39.662 11.4079 37.9049 9.65203 35.7452 9.65203C33.5854 9.65203 31.8283 11.4079 31.8283 13.5657L31.8238 28.4546C30.9225 27.8297 29.8539 27.4934 28.7328 27.4934H28.7273C27.0755 27.4951 25.7304 28.8422 25.7289 30.4968L25.727 33.1811C25.4529 33.3741 25.2415 33.5204 25.0795 33.6311C24.3619 33.14 22.9725 32.1497 21.1665 30.8137C20.6463 30.4289 19.9124 30.5386 19.5275 31.059C19.1426 31.5793 19.2523 32.3132 19.7727 32.698C24.4887 36.1864 24.6497 36.1864 25.0799 36.1864C25.289 36.1864 25.4202 36.1757 25.7252 36.0045L25.7219 40.7698C25.7212 42.5053 26.3996 44.1368 27.6322 45.3636C28.8631 46.5889 30.4996 47.2637 32.2401 47.2637H33.3356C34.0081 47.2637 34.5552 47.8109 34.5552 48.4834V49.7152C33.9557 49.7668 33.4853 50.2697 33.4853 50.8826V58.8281C33.4853 59.4754 34.01 60 34.6572 60H48.2764C48.9236 60 49.4482 59.4754 49.4482 58.8281V50.8827C49.4482 50.2699 48.9779 49.767 48.3784 49.7153V48.4835C48.3784 47.811 48.9256 47.2638 49.5981 47.2638C53.1897 47.2638 56.1138 44.3538 56.1163 40.7776L56.1325 27.7677C56.1322 25.6088 54.3756 23.8522 52.2167 23.8522ZM47.1043 57.6562H35.8288V52.0546H47.1043V57.6562ZM53.7722 40.7755C53.7706 43.0608 51.8979 44.9202 49.5978 44.9202C47.6329 44.9202 46.0343 46.5187 46.0343 48.4836V49.7109H36.8986V48.4836C36.8986 46.5187 35.3001 44.9202 33.3352 44.9202H32.2397C31.1233 44.9202 30.074 44.4879 29.2853 43.7027C28.4982 42.9192 28.0649 41.878 28.0654 40.7713L28.0725 30.4988C28.0729 30.1343 28.3676 29.8375 28.7295 29.8371H28.7327C29.5595 29.8371 30.3363 30.1583 30.9197 30.7417C31.5005 31.3222 31.8208 32.0938 31.8223 32.9149V38.1109C31.8223 38.7581 32.347 39.2828 32.9942 39.2828C33.6414 39.2828 34.1661 38.7581 34.1661 38.1109L34.1719 13.566C34.1719 12.7001 34.8776 11.9957 35.745 11.9957C36.6125 11.9957 37.3182 12.7001 37.3182 13.566V27.7677C37.3182 28.4149 37.8428 28.9396 38.49 28.9396C39.1373 28.9396 39.6619 28.4149 39.6619 27.7677C39.6619 26.901 40.367 26.196 41.2365 26.196C42.1032 26.196 42.8082 26.9011 42.8082 27.7677C42.8082 28.4149 43.3328 28.9396 43.98 28.9396C44.6273 28.9396 45.1519 28.4149 45.1519 27.7677C45.1519 26.901 45.857 26.196 46.7265 26.196C47.5932 26.196 48.2982 26.9011 48.2982 27.7677C48.2982 28.4149 48.8228 28.9396 49.47 28.9396C50.1173 28.9396 50.6419 28.4149 50.6419 27.7677C50.6419 26.901 51.347 26.196 52.2136 26.196H52.2165C53.0832 26.196 53.7882 26.9011 53.7882 27.7663L53.7722 40.7755Z" fill="white" fill-opacity="0.1"/>
</g>
<defs>
<clipPath id="clip0">
<rect width="60" height="60" fill="white"/>
</clipPath>
</defs>
</svg>
