<svg width="14" height="14" viewBox="0 0 14 14" fill="none" xmlns="http://www.w3.org/2000/svg">
<path d="M10.8764 8.59279C10.6031 8.30857 10.2733 8.15661 9.92387 8.15661C9.57723 8.15661 9.24469 8.30575 8.96005 8.58998L8.0695 9.47642C7.99623 9.43702 7.92296 9.40044 7.8525 9.36385C7.75105 9.3132 7.65523 9.26536 7.5735 9.21471C6.73932 8.68566 5.98122 7.9962 5.25413 7.10414C4.90186 6.65951 4.66513 6.28524 4.49322 5.90533C4.72431 5.69428 4.93849 5.47478 5.14704 5.26372C5.22595 5.18493 5.30486 5.10332 5.38377 5.02452C5.97559 4.43356 5.97559 3.66813 5.38377 3.07717L4.6144 2.30892C4.52704 2.22169 4.43686 2.13164 4.35231 2.04159C4.18322 1.86711 4.00567 1.68701 3.82249 1.51816C3.54913 1.24801 3.22222 1.10449 2.8784 1.10449C2.53458 1.10449 2.20203 1.24801 1.92022 1.51816C1.9174 1.52098 1.9174 1.52098 1.91458 1.52379L0.956395 2.48903C0.595667 2.84923 0.389939 3.28823 0.344848 3.79758C0.277212 4.61929 0.519576 5.38473 0.705576 5.88563C1.16212 7.11539 1.84412 8.2551 2.86149 9.47642C4.09586 10.9482 5.58104 12.1104 7.27759 12.9293C7.92577 13.236 8.79096 13.5991 9.7576 13.661C9.81678 13.6638 9.87878 13.6666 9.93514 13.6666C10.5861 13.6666 11.1329 13.433 11.5612 12.9687C11.5641 12.9631 11.5697 12.9603 11.5725 12.9546C11.7191 12.7773 11.8881 12.6169 12.0657 12.4453C12.1869 12.3299 12.3109 12.2089 12.4321 12.0823C12.7111 11.7924 12.8576 11.4547 12.8576 11.1086C12.8576 10.7596 12.7082 10.4248 12.4236 10.1434L10.8764 8.59279ZM11.8853 11.556C11.8825 11.556 11.8825 11.5588 11.8853 11.556C11.7754 11.6742 11.6627 11.7812 11.5415 11.8994C11.3583 12.0738 11.1723 12.2567 10.9976 12.4622C10.713 12.7661 10.3776 12.9096 9.93796 12.9096C9.89569 12.9096 9.8506 12.9096 9.80832 12.9068C8.97132 12.8533 8.1935 12.5269 7.61014 12.2483C6.01504 11.4772 4.6144 10.3826 3.45049 8.99521C2.48949 7.83861 1.84694 6.76926 1.4214 5.62111C1.1593 4.9204 1.06349 4.37447 1.10576 3.85949C1.13394 3.53024 1.26076 3.25727 1.49467 3.0237L2.45567 2.0641C2.59376 1.93465 2.74031 1.8643 2.88404 1.8643C3.06158 1.8643 3.20531 1.97123 3.29549 2.06128C3.29831 2.0641 3.30113 2.06691 3.30395 2.06973C3.47585 2.23013 3.63931 2.39616 3.81122 2.57345C3.89858 2.6635 3.98877 2.75355 4.07895 2.84642L4.84831 3.61466C5.14704 3.91296 5.14704 4.18874 4.84831 4.48703C4.76658 4.56864 4.68768 4.65025 4.60595 4.72904C4.36922 4.97105 4.14377 5.19618 3.89858 5.41568C3.89295 5.42131 3.88731 5.42412 3.88449 5.42975C3.64213 5.67176 3.68722 5.90815 3.73795 6.06855C3.74076 6.07699 3.74358 6.08544 3.7464 6.09388C3.94649 6.5779 4.22831 7.03378 4.65668 7.5769L4.65949 7.57972C5.43731 8.53651 6.25741 9.28224 7.16204 9.85351C7.27759 9.92667 7.39595 9.98577 7.50868 10.042C7.61014 10.0927 7.70595 10.1405 7.78768 10.1912C7.79895 10.1968 7.81023 10.2053 7.8215 10.2109C7.91732 10.2587 8.0075 10.2812 8.1005 10.2812C8.33441 10.2812 8.48096 10.1349 8.52887 10.0871L9.49269 9.12465C9.5885 9.02898 9.74069 8.9136 9.91823 8.9136C10.093 8.9136 10.2367 9.02335 10.3241 9.11903C10.3269 9.12184 10.3269 9.12184 10.3297 9.12465L11.8825 10.6752C12.1728 10.9623 12.1728 11.2577 11.8853 11.556Z" fill="white"/>
<path d="M7.53948 3.50486C8.27785 3.62868 8.94858 3.97762 9.48403 4.5123C10.0195 5.04698 10.3661 5.71673 10.4929 6.45402C10.5239 6.63975 10.6846 6.7692 10.8678 6.7692C10.8903 6.7692 10.91 6.76639 10.9326 6.76357C11.1411 6.7298 11.2792 6.53282 11.2454 6.32458C11.0932 5.43251 10.6705 4.61924 10.0251 3.97481C9.37976 3.33038 8.5653 2.90827 7.67194 2.75631C7.46339 2.72254 7.26894 2.86043 7.2323 3.06586C7.19566 3.27129 7.33094 3.47109 7.53948 3.50486Z" fill="white"/>
<path d="M13.661 6.21487C13.4102 4.74591 12.7169 3.40922 11.6516 2.34549C10.5864 1.28176 9.24772 0.589498 7.77663 0.339044C7.5709 0.302461 7.37644 0.443165 7.33981 0.648594C7.30599 0.856837 7.44408 1.05101 7.65263 1.08759C8.9659 1.30991 10.1636 1.93182 11.1162 2.88017C12.0687 3.83133 12.6887 5.02732 12.9114 6.33869C12.9424 6.52442 13.103 6.65387 13.2862 6.65387C13.3087 6.65387 13.3285 6.65105 13.351 6.64824C13.5567 6.61728 13.6976 6.4203 13.661 6.21487Z" fill="white"/>
</svg>
