<svg width="15" height="12" viewBox="0 0 15 12" fill="none" xmlns="http://www.w3.org/2000/svg">
<path d="M13.1688 0H1.83426C0.82247 0 0 0.8646 0 1.92822V10.0718C0 11.1354 0.82247 12 1.83426 12H13.1657C14.1775 12 15 11.1354 15 10.0718V1.93148C15.0031 0.867863 14.1806 0 13.1688 0ZM14.1651 10.0718C14.1651 10.6493 13.7182 11.1191 13.1688 11.1191H1.83426C1.28492 11.1191 0.837988 10.6493 0.837988 10.0718V1.93148C0.837988 1.354 1.28492 0.884176 1.83426 0.884176H13.1657C13.7151 0.884176 14.162 1.354 14.162 1.93148V10.0718H14.1651Z" fill="white"/>
<path d="M9.45957 5.89791L13.1281 2.43951C13.2988 2.27637 13.3143 1.99905 13.1591 1.81634C13.004 1.6369 12.7401 1.62058 12.5663 1.78371L7.50737 6.55696L6.52041 5.63037C6.5173 5.62711 6.5142 5.62385 6.5142 5.62058C6.49247 5.59774 6.47075 5.57817 6.44592 5.55859L2.42978 1.78045C2.25598 1.61732 1.99217 1.63363 1.83698 1.81634C1.6818 1.99905 1.69732 2.27637 1.87112 2.43951L5.5831 5.92727L1.88664 9.56512C1.71904 9.73151 1.70973 10.0088 1.86802 10.1883C1.95182 10.2796 2.06355 10.3286 2.17528 10.3286C2.2777 10.3286 2.38012 10.2894 2.46082 10.2111L6.21314 6.52107L7.23114 7.47703C7.31184 7.55207 7.41116 7.58796 7.51047 7.58796C7.60979 7.58796 7.71221 7.54881 7.7898 7.47376L8.83574 6.48845L12.5663 10.2144C12.647 10.296 12.7526 10.3351 12.855 10.3351C12.9667 10.3351 13.0753 10.2894 13.1591 10.1981C13.3174 10.0219 13.3112 9.7413 13.1436 9.57491L9.45957 5.89791Z" fill="white"/>
</svg>
